<svg width="33" height="21" viewBox="0 0 33 21" fill="none" xmlns="http://www.w3.org/2000/svg">
<path d="M31.9643 14.8137C31.9643 15.6387 30.7627 16.6529 29.7854 16.6529H28.8955C28.8965 11.6036 28.8965 5.94293 28.8955 4.93816C28.8952 4.90841 28.9019 4.87889 28.9155 4.85129C28.9291 4.82369 28.9492 4.79856 28.9746 4.77733C29.0001 4.7561 29.0304 4.73919 29.0638 4.72757C29.0972 4.71595 29.1331 4.70985 29.1695 4.70961H31.6892C31.8405 4.70961 31.9644 4.81364 31.9644 4.93995V14.8137H31.9643ZM27.8584 18.4248C27.8584 18.947 27.5464 19.8219 25.4569 19.8219C21.4075 19.8219 18.9217 17.2229 18.9217 15.3589C18.9217 15.3589 18.9172 9.33183 18.9172 4.94006C18.9168 4.91027 18.9236 4.8807 18.9372 4.85306C18.9507 4.82542 18.9709 4.80025 18.9964 4.77901C19.0219 4.75777 19.0523 4.74087 19.0858 4.72928C19.1193 4.7177 19.1553 4.71166 19.1917 4.71152H21.7144C21.8658 4.71152 21.9902 4.81487 21.9902 4.94197V14.626C21.9902 16.2261 23.536 17.5239 25.4416 17.5239H27.8597L27.8584 18.4248ZM31.8804 3.84111H28.9778C28.3607 3.84111 27.8581 4.26338 27.8581 4.78139V16.6539H25.4398C24.1056 16.6539 23.0243 15.7458 23.0243 14.6258V4.78139C23.0243 4.26215 22.5223 3.84067 21.904 3.84067H19.0002C18.3818 3.84067 17.88 4.26215 17.8791 4.78139C17.8776 9.07394 17.8836 15.3591 17.8836 15.3591C17.884 18.6628 22.2942 20.6914 25.4561 20.6914C27.5769 20.6914 28.8942 19.821 28.8942 18.4188V17.5237H29.785C31.3474 17.5237 33.0001 16.131 33.0001 14.8137V4.78139C33.0016 4.26215 32.4999 3.84067 31.8805 3.84067V3.84111H31.8804ZM14.7258 16.4429C14.7262 16.4726 14.7193 16.5021 14.7057 16.5297C14.6921 16.5573 14.672 16.5824 14.6465 16.6036C14.621 16.6248 14.5907 16.6417 14.5572 16.6532C14.5237 16.6648 14.4878 16.6708 14.4515 16.671H11.9288C11.7753 16.671 11.6522 16.5667 11.6529 16.4411V6.7569C11.6529 5.15696 10.1067 3.85914 8.20156 3.85914H5.78329V2.95806C5.78329 2.43691 6.09521 1.56091 8.18475 1.56091C12.2343 1.56091 14.7207 4.1598 14.7207 6.0239C14.7207 6.0239 14.7253 12.0802 14.7253 16.4427H14.7258V16.4429ZM1.95125 16.673C1.79775 16.6693 1.675 16.5679 1.67678 16.4422V6.57023C1.67678 5.74507 2.87854 4.72955 3.85544 4.72955H4.7461C4.74473 11.9603 4.74473 15.6602 4.7461 16.4417C4.74679 16.5021 4.71826 16.5603 4.66674 16.6035C4.61523 16.6467 4.54492 16.6714 4.47122 16.6722H1.95166L1.95125 16.673ZM15.7562 6.02401C15.7567 2.71999 11.3463 0.691406 8.18489 0.691406C6.0635 0.691406 4.7461 1.5617 4.7461 2.96399V3.85914H3.85585C2.29283 3.85914 0.640137 5.25181 0.640137 6.56923V16.6014C0.640137 17.1207 1.14192 17.5421 1.76002 17.5421H4.66204C4.68008 17.5421 4.69553 17.5381 4.71357 17.5381C5.30666 17.5147 5.78178 17.1055 5.78178 16.6014V4.72887H8.20047C9.53413 4.72887 10.616 5.63701 10.616 6.75701V16.6015C10.616 17.1208 11.1179 17.5423 11.7359 17.5423H14.6402C15.2586 17.5423 15.7601 17.1219 15.7601 16.6015C15.7623 12.2289 15.7566 6.02378 15.7566 6.02378L15.7562 6.02401Z" fill="white"/>
</svg>
